PathFileType	4	(X/Y/Z)	/tmp/tmphz8i29mk/org-f5e79b5e/32898/baseball-pitching/20220928/session_662820_hawkeye/trc/001_10A17836-7AA3-4221-8461-2F40718F5DA8.trc
DataRate	CameraRate	NumFrames	NumMarkers	Units	OrigDataRate	OrigDataStartFrame	OrigNumFrames
303.03030303030306	303.03030303030306	6	13	mm	303.03030303030306	568	908
Frame#	Time	LSJC			RSJC			LEJC			REJC			LWJC			RWJC			LHJC			RHJC			LKJC			RKJC			LAJC			RAJC			NECK		
		X1	Y1	Z1	X2	Y2	Z2	X3	Y3	Z3	X4	Y4	Z4	X5	Y5	Z5	X6	Y6	Z6	X7	Y7	Z7	X8	Y8	Z8	X9	Y9	Z9	X10	Y10	Z10	X11	Y11	Z11	X12	Y12	Z12	X13	Y13	Z13

568	1.8711	-103.99659379151821	1074.00623389034	1586.7168523191099	-71.27931676894784	678.6465578442388	1521.6137642389451	-206.66327357796382	1335.7392792828268	1488.7086700841778	-171.06670870647454	422.2983672548711	1433.6627838748384	64.22158458518966	1326.6217334022722	1494.9736864133713	-274.2353832530119	315.52347015672376	1664.9112060854397	-78.81452054025347	1023.1342025198537	1022.8705847829311	65.46385423713605	835.2591261774488	1013.9114291877429	-4.03526059523817	1311.970241857716	705.5829507694596	100.01692487971702	594.9078129934778	649.503446778286	82.81952559890786	1434.330182794711	304.28929158829385	20.897567232666624	214.7270109747084	469.78034220112454	-56.48555508496949	881.7207205190357	1558.4084255871344
569	1.8744	-120.01336517106176	1083.1527982171256	1579.0062162778231	-64.99789228051286	688.353240622456	1524.2866964949303	-222.82781038792496	1338.4696658084033	1464.9279930414655	-154.00738750238082	426.6957315972872	1441.0415388607826	47.80458129783473	1334.189187453512	1482.3027846224854	-266.00658200517995	333.1403548169948	1673.6052959607096	-82.25545703422257	1025.4928768617376	1020.9958956188452	67.81687691273298	842.0994762268931	1014.7118319583673	-6.7308919071000055	1314.4912529274443	704.8968353160782	104.24211690309768	602.3554278951444	650.2080260161346	82.24956368447278	1436.1916827792013	303.72786404851956	20.54635819270923	222.74089249824374	471.15850350652585	-60.82046068692373	892.379705811082	1557.989711987369
570	1.8777	-135.95770166384708	1091.524448267038	1570.6639426363672	-58.687569348673804	698.6350286510609	1527.2189512868133	-238.16986867695462	1339.7044961628767	1440.9362252298088	-135.8309928711635	431.73133812954364	1449.4814075779443	31.678853439419818	1340.931946179989	1469.2348051781498	-257.54468573576736	350.82796677578335	1681.6421257090915	-85.24239226389766	1027.869248058141	1019.0605124647216	70.30996575752859	849.0232297158199	1015.505471569047	-9.054976034356043	1316.8592409768712	703.9280175454584	108.54427274351958	609.6900743587919	651.0482724293753	81.67952734664877	1437.6853365405595	302.7550261883289	20.173567375995667	230.7218671478297	472.68510744263443	-65.29810095387816	903.1054166127531	1557.3927902352643
571	1.881	-151.534553602785	1099.156857912564	1561.7772928119584	-52.370144167681666	709.5617675571439	1530.3992157726207	-252.46495654244106	1339.5327768996017	1416.9288461825909	-116.56520251070332	437.6528452000079	1459.040131229001	16.0446425380473	1346.8306915992941	1455.979641475435	-248.77164945251147	368.50528936796644	1689.0125463518004	-87.75344611659727	1030.3507347234508	1017.0912031516428	72.98949419430856	856.1187404008042	1016.2707100010018	-11.010982635741026	1319.1770759549995	702.7025785830186	112.89301292246412	616.9434657548604	652.0401486406547	81.19061903607083	1438.8663712603375	301.39274493282585	19.923840622336236	238.64141781056105	474.3968453080575	-69.79814407906618	913.9307813156724	1556.6156894392182
572	1.8843	-166.46345740435675	1106.133386004678	1552.460772519249	-46.077321770844115	721.1942354442864	1533.8180882577567	-265.52411471999153	1338.102103901469	1393.1278278079328	-96.28156336558769	444.7248335184945	1469.7568793920277	1.0657784928343443	1351.9499934462028	1442.7717221987778	-239.61603302846953	386.10354914606535	1695.7373212171308	-89.79037087995397	1033.0109625934597	1015.1215166297975	75.88351638525774	863.4675872148847	1016.9962138311519	-12.635317016642752	1321.5482913831231	701.2678915109659	117.24389095886724	624.1506170342761	653.2016617687567	80.8427470450438	1439.8159431064887	299.6972934287312	19.923497901382024	246.46648948500984	476.3330383535739	-74.20312403297535	924.9010054617939	1555.672520560739
573	1.8876	-180.494697266218	1112.5822518802856	1542.8530291944721	-39.85567249278414	733.5790286184083	1537.4652478344676	-277.21581884474756	1335.6120220815997	1369.7703405785828	-75.10443522431271	453.21513579351654	1481.6415413309203	-13.15097897453584	1356.4313344140903	1429.8499609674886	-230.01592919841434	403.5673183381348	1701.8647762894454	-91.38331849782108	1035.9060303317142	1013.1907872203024	78.99642544597698	871.1416043493656	1017.6800588568489	-14.005256640477016	1324.0743526172553	699.6919267450285	121.53266716320105	631.3485229448211	654.5518531676115	80.66449082423706	1440.64034453688	297.7580308427651	20.27074376559556	254.1620041807509	478.5305028620944	-78.4077387143761	936.0712841075032	1554.5920920841543
